<svg xmlns="http://www.w3.org/2000/svg" viewBox="0 0 443.43 491.37">
  <title>John Beales</title>
      <path d="M407.65,239.86q-35.77-31.1-109.57-36.49,61.34-8.88,91.84-34.27t30.51-67.27c0-67.7-59-101.62-177.37-101.62L107.86,0V12.29h8.61q27.71,0,35.91,4.81t10.76,17.37Q165.69,47,165.7,90.31V327.05q0,60.65-4.31,87t-25.28,45.69q-21,19.37-51.65,19.37-15.06,0-25.28-4.81T49,460.91q0-3.21,3-9.62a34,34,0,0,0,3.23-13.89,25.49,25.49,0,0,0-7.94-19q-7.93-7.76-19.77-7.75a25.57,25.57,0,0,0-19.5,8.55Q0,427.78,0,440.34q0,20.84,22.33,35.94t63.75,15.09q36.84,0,64.69-12.29T195.29,444q3.17-4.35,5.86-8.72l54.44-.21q63.57,0,101.43-9t62.13-38.39q24.28-29.35,24.28-70Q443.43,271,407.65,239.86ZM342.8,54.23q9.9,18.41,9.91,52,0,48.24-25.24,69.81t-94.24,21.58q-5.43,0-13.41-.32V16.78q13.1-.95,25.55-1,47.91,0,67.73,10T342.8,54.23Zm6.39,339.85q-25.56,26-76.66,26-28.75,0-38.5-8.57t-12-25.07q-2.24-16.48-2.23-77.74V212.89q12.77-.63,24.27-.64,72.84,0,101.75,25.23T374.75,316Q374.75,368.07,349.19,394.08Z"/>
</svg>
