<svg id="Layer_1" data-name="Layer 1" xmlns="http://www.w3.org/2000/svg" viewBox="0 0 500 700">
  <title>Made by John</title>
<defs>
      <radialGradient id="sealgradient">
        <stop offset="0%" stop-color="red"/>
        <stop offset="100%" stop-color="blue"/>
      </radialGradient>
         <filter id="convolve">
     	<feConvolveMatrix kernelMatrix="1 0 0 0 0 0 0 0 -1"/>

		</filter>
		<filter id="emboss">
			<feConvolveMatrix kernelMatrix="-2 -1 0 1 1 1 0 1 2"/>
		</filter>
      </defs>
  <path d="M440.78,262.69Q405,231.6,331.21,226.2q61.34-8.88,91.84-34.27t30.51-67.28C453.56,57,394.6,23,276.19,23L141,22.83V35.12h8.6q27.71,0,35.91,4.81T196.27,57.3q2.55,12.56,2.56,55.84V349.88q0,60.64-4.31,87t-25.28,45.69q-21,19.36-51.65,19.37-15.06,0-25.28-4.81T82.09,483.74q0-3.21,3-9.62a34,34,0,0,0,3.23-13.89,25.47,25.47,0,0,0-7.94-19q-7.94-7.75-19.77-7.75a25.53,25.53,0,0,0-19.5,8.55q-7.93,8.55-7.94,21.11,0,20.83,22.33,35.93t63.75,15.1q36.84,0,64.69-12.29t44.52-35.14q3.17-4.33,5.86-8.72l54.44-.21q63.57,0,101.43-9t62.13-38.4q24.29-29.34,24.28-70Q476.56,293.79,440.78,262.69ZM375.93,77.06q9.9,18.41,9.91,52,0,48.22-25.24,69.81t-94.24,21.57q-5.43,0-13.41-.31V39.61q13.1-.95,25.55-1,47.92,0,67.73,10T375.93,77.06Zm6.4,339.85q-25.57,26-76.67,26-28.76,0-38.5-8.57t-12-25.07q-2.24-16.5-2.23-77.74V235.72q12.76-.65,24.27-.64,72.84,0,101.75,25.23t28.91,78.54Q407.88,390.89,382.33,416.91Z"/>
  <path d="M342.24,608.83c-.7-.3-.81-.31-.95,0-.22.55-3.69,1.64-5.29,1.68a34.32,34.32,0,0,1-9-2.28,11.92,11.92,0,0,0-4.44-1,16,16,0,0,1-4-.76,36.12,36.12,0,0,0-3.5-1.06c-1.65-.38-2.09-.42-2.69-.23a3.6,3.6,0,0,1-1,.19c-.5,0-.95-2.12-1.14-5.13-.05-.9-.14-1.94-.15-2.27,0-.53.16-.82,1.18-1.73,1.4-1.24,2.2-1.63,3.09-1.55a.82.82,0,0,0,.94-.53,13.46,13.46,0,0,1,2.58-3.41c.8-.65,3.19-4.38,4.92-7.64a28.94,28.94,0,0,1,1.49-2.54,20.9,20.9,0,0,1,6.41-4.91c3.06-1.48,3.13-1.76.49-1.59-.95,0-2.27.12-2.93.2a9.33,9.33,0,0,1-3.23-.4,8,8,0,0,1-5.07-3c-.72-1-.77-1.22-.85-3.22-.05-1.19,0-3.51,0-5.17.11-2.9.08-3.08-.54-4.53a11.33,11.33,0,0,1-1-5.63,7.69,7.69,0,0,0,0-2c-.13-.61.57-3.3,1.34-5.27.33-.8.1-1.17-.94-1.53-.6-.2-1.26.33-2.13,1.81a10.77,10.77,0,0,1-1.89,2,11.43,11.43,0,0,1-7.46,2.93,4.55,4.55,0,0,0-2.05.46,16.84,16.84,0,0,1-4.28,1.85,21.57,21.57,0,0,1-6.91-.06,8.65,8.65,0,0,1-2.68-3.06c-.34-.6-.61-.86-.91-.85-.58,0-.83.72-1.22,3.14-.44,2.78-.93,3.85-2.47,5.43a17.46,17.46,0,0,0-2,2.51c-.86,1.37-2.18,4.88-2.08,5.51s-.52,1.13-1.38,1.49a8.84,8.84,0,0,0-1.94,2.11c-1.06,1.44-1.47,1.84-1.84,1.83s-.78.37-.35.41.4.71.07,1a1.72,1.72,0,0,0-.43.44,3.27,3.27,0,0,1-.82.59c-.6.34-.85.38-1.15.16-.73-.46-.84-1-.29-1.49.4-.36.47-.6.43-1.43a4.85,4.85,0,0,0-.5-1.77c-.41-.74-.7-2.21-1-5.15-.07-.73,0-3.72.23-6.65s.41-5.86.44-6.44a22.61,22.61,0,0,1,.48-2.7,20.56,20.56,0,0,0,.48-2.25c.06-.37.26-1.49.49-2.54.36-1.68.36-1.92.07-2.27s-.39-.34-1.16.4a5.71,5.71,0,0,0-1,1.09c-.54,1.14-2.74,1.34-5.45.53a16.48,16.48,0,0,0-2.6-.58,1.8,1.8,0,0,1-1.53-.81A6.93,6.93,0,0,0,262,540c-.6-.45-.64-.45-2-.13s-1.4.31-1.78-.1a1.29,1.29,0,0,1-.37-.82c.06-.65-.14-1.08-.56-1.12s-.74-.46-.81-1.43c0-.55.05-.87.29-1,.46-.31.45-.4-.35-1.78a18.73,18.73,0,0,1-1.92-7.26,10.27,10.27,0,0,0-.68-3.44,5.09,5.09,0,0,1-.62.08c-.47.05-.52.17-.65,1.67A7.14,7.14,0,0,1,252,527a4.15,4.15,0,0,0-.36,2.14c0,1.1-.06,1.48-.41,1.91a2,2,0,0,0-.5,1.93c.84,1.17-3,3.52-5,3.06a1.58,1.58,0,0,0-1.39.14c-.74.5-3.55,5.53-3.63,6.51a8.07,8.07,0,0,1-.75,2.21,8.4,8.4,0,0,0-.71,1.9c-.05.61-.53.75-2.13.61-2-.18-5.06-1.76-7.31-3.82-.44-.41-.93-.83-1.07-.93-.33-.25,1.62,4.22,2.29,5.26a7.78,7.78,0,0,1,.89,2.53c.58,2.92.6,3.18.29,3.48a7.45,7.45,0,0,0-.5,2.17c-.11,1-.35,2.79-.56,3.91a20.08,20.08,0,0,0-.29,3.26c.12,1.94.09,2.28-.22,2.78a4.2,4.2,0,0,0-.32,1.62c-.06,3.23-.45,5.1-1.16,5.69-.52.46-.58.46-1.18.07A3.36,3.36,0,0,0,227,573a2.74,2.74,0,0,1-.9-.63,8,8,0,0,0-1.49-1,37,37,0,0,1-6.39-4.76,13.63,13.63,0,0,1-1.47-2,28.38,28.38,0,0,0-4.84-5.63,14.73,14.73,0,0,1-4-4.2c-.31-.64-.89-1.81-1.23-2.61-.63-1.36-2.27-4-2.42-3.91a4.33,4.33,0,0,0,.38,1.17,2.91,2.91,0,0,1,.24,2.06,5.5,5.5,0,0,1-2.83,3.82c-1.34.54-4.44.2-8.44-.92a29.61,29.61,0,0,0-4.09-.73,18.51,18.51,0,0,1-8.67-3.19,4.12,4.12,0,0,0-1.19-.72c-.19,0-.34-.14-.32-.27,0-.37-3.89-.38-4.55,0-.28.16-.47.38-.44.47a6,6,0,0,0,1.73.46c2.11.38,3,.86,3.16,1.68a5,5,0,0,0,.42,1.19,21.13,21.13,0,0,1,1.42,4.05,2.75,2.75,0,0,1,0,2,4.17,4.17,0,0,0-.23,1.6c.08.89-.76,2.19-1.37,2.14s-1.38.51-1.41.94a3.38,3.38,0,0,0,.49,1.3c1.81,3.07,2.3,4.49,2.39,7a8.76,8.76,0,0,0,.28,1.77c.77,2.17.93,3.17.7,4.29-.34,1.55-1.05,2.23-3.18,3a7.32,7.32,0,0,1-4.06.43c-2.05-.13-2.39-.21-2.62-.58s-.62-.18-.48.46,1,1.32,4.72,3.59c2.92,1.81,3.36,2.14,3.68,2.91a6.56,6.56,0,0,0,1.63,1.89,43.52,43.52,0,0,1,5.4,6.58,28.36,28.36,0,0,0,6.29,5.05c1,.43,1,.52,1,2.67,0,3-.61,4.89-1.8,5.49-2.77,1.37-3.4,1.58-5,1.68-3.28.21-4.94.68-9.58,2.63a57.34,57.34,0,0,1-8.08,2.6,25.1,25.1,0,0,0-2.54.74c-.07.06,0,.37.28.72a2.15,2.15,0,0,1,.37,1,4.28,4.28,0,0,0,1,1.64c.67.82,1,1.4.94,1.79s.21.81,1.06,1.58a9.57,9.57,0,0,1,1.42,1.57c.55,1,2.7,2.89,5.61,4.89a12.82,12.82,0,0,1,1.42,1.57,8.81,8.81,0,0,0,2.38,2.07,4.46,4.46,0,0,1,2.38,2.53c.54,1.1.33,1.74-.72,2.13-.43.16-.8.39-.81.52,0,.5,1.2.63,4.88.51a4.94,4.94,0,0,1,2.36.54,10.23,10.23,0,0,0,3.87.8,10.21,10.21,0,0,1,2.83.47,6.19,6.19,0,0,0,1.91.6,15.41,15.41,0,0,1,2.42.68,6.43,6.43,0,0,0,2.27.33,3.74,3.74,0,0,1,2.07.36,4.32,4.32,0,0,0,1.55.46,2.64,2.64,0,0,1,1.58.55c.36.37.61.45,1,.33.66-.18.82,0,1.28,1.14a2.08,2.08,0,0,1,0,2.08c-.5,1.36-.47,1.56.57,3.4a58.26,58.26,0,0,1,3.15,7.7c.41,1.09.41,1.09,1.31,1.06a49.78,49.78,0,0,0,8.85-1.79,12.2,12.2,0,0,1,2.29-.67c.8.07,4.83-1.46,6.73-2.56.57-.34,1.76-.92,2.63-1.32s2.49-1.2,3.57-1.81a9.75,9.75,0,0,1,2.44-1.06,12.7,12.7,0,0,0,2.63-.77c1.2-.44,2.59-.91,3.11-1a16.05,16.05,0,0,0,2.45-1,4.11,4.11,0,0,1,1.8-.58c.28.13.7,1.52,1,3.19a31.84,31.84,0,0,0,1.38,3.8,23.52,23.52,0,0,1,.85,3.23c.18,1.41.34,2.74.38,3,.06.61.12,2,.29,2.9s.31,2.31.37,3.3c.1,1.85.25,2.35,1,3,.43.39.48.39,1,0a6.42,6.42,0,0,0,1.1-1c.48-.54.59-.58,1.09-.34s.61.18,1.18-.45a2.68,2.68,0,0,0,.64-1,10.25,10.25,0,0,0-1.77-2.82,27.23,27.23,0,0,1-2-4,39.69,39.69,0,0,1-2.4-7.27v0l-.06-.18q-.19-.88-.36-1.83a12.56,12.56,0,0,1-.1-2.54c.1-1.13.49-1.16,2.86-.17a10.87,10.87,0,0,0,3.44,1,8.3,8.3,0,0,1,2,.4,30,30,0,0,0,4.8,1.41c.64.14,1.91.45,2.78.72s1.84.56,2.14.63,1.14.38,1.91.67c1.23.46,2.13.58,8.55,1.08,7.78.6,8.39.59,13-.38a21.15,21.15,0,0,1,6.06-.67,15.68,15.68,0,0,1,4,.37,21.45,21.45,0,0,0,3.44.46c1.68.08,2.15,0,2.52-.31s.48-.39-1.09-.53c-1.78-.16-2.55-.55-5.25-2.72-.8-.64-2.15-1.65-3-2.25-1.69-1.18-4.7-4.34-4.89-5.14a4.07,4.07,0,0,1,1.5-2.89,16.54,16.54,0,0,1,2.23-.7,17.25,17.25,0,0,0,4.89-1.76c.36-.36,1.15-.38,1.11,0s1.89.21,3.48-.18a21.74,21.74,0,0,1,2.48-.41,11.57,11.57,0,0,0,2.32-.48,3.64,3.64,0,0,1,2.18-.09c1.2.26,2.12.06,2.16-.44,0-.2-.05-.18-.2,0-.34.45-1.83-1.8-1.75-2.67.06-.7,1-2,2.54-3.5a20.92,20.92,0,0,0,1.48-1.73,18.83,18.83,0,0,1,2.19-2.19c1.82-1.5,2.43-2.24,3-3.55a6.66,6.66,0,0,1,1.57-2.2,33.76,33.76,0,0,0,3.7-4.16,11.42,11.42,0,0,1,2.6-2c1.18-.73,2.69-1.73,3.34-2.2s1.55-1.14,2-1.44a2.09,2.09,0,0,0,1-1.21C343,609.27,342.93,609.16,342.24,608.83Z"/>
</svg>
